<svg width="48" height="48" viewBox="0 0 48 48" fill="none" xmlns="http://www.w3.org/2000/svg">
<path d="M10.702 23.2085C13.5076 21.6631 16.6394 20.3733 19.5656 19.0769C24.5998 16.9535 29.654 14.8669 34.7592 12.9243C35.7525 12.5933 37.5372 12.2696 37.7122 13.7416C37.6164 15.8252 37.2222 17.8966 36.9518 19.968C36.2655 24.5232 35.4723 29.0628 34.6988 33.603C34.4323 35.1153 32.5378 35.8982 31.3256 34.9304C28.4124 32.9626 25.4768 31.014 22.6008 29.0006C21.6587 28.0433 22.5323 26.6686 23.3737 25.985C25.7731 23.6204 28.3177 21.6114 30.5917 19.1246C31.2051 17.6433 29.3927 18.8917 28.7949 19.2742C25.5101 21.5378 22.3057 23.9396 18.8425 25.929C17.0735 26.9028 15.0117 26.0706 13.2435 25.5272C11.6581 24.8708 9.33485 24.2095 10.7019 23.2086L10.702 23.2085Z" fill="white"/>
</svg>
