<svg width="48" height="48" viewBox="0 0 48 48" fill="none" xmlns="http://www.w3.org/2000/svg">
<path fill-rule="evenodd" clip-rule="evenodd" d="M36.8083 17.1103C37.0075 16.484 36.8083 16.0285 35.9257 16.0285H32.9933C32.2531 16.0285 31.9115 16.427 31.7122 16.8542C31.7122 16.8542 30.2032 20.4983 28.0965 22.8612C27.4132 23.5445 27.1 23.7722 26.73 23.7722C26.5306 23.7722 26.2745 23.5445 26.2745 22.9182V17.0818C26.2745 16.3416 26.0467 16 25.4203 16H20.8083C20.3527 16 20.0681 16.3416 20.0681 16.6833C20.0681 17.3951 21.1214 17.5658 21.2353 19.5587V23.8861C21.2353 24.8257 21.0645 24.9964 20.6944 24.9964C19.6979 24.9964 17.278 21.3238 15.8261 17.1388C15.5413 16.3132 15.2567 16 14.5165 16H11.5556C10.7015 16 10.5591 16.3986 10.5591 16.8257C10.5591 17.5943 11.5556 21.4662 15.1997 26.5908C17.6197 30.0925 21.0645 31.9715 24.1677 31.9715C26.0467 31.9715 26.2745 31.5445 26.2745 30.8328V28.1851C26.2745 27.331 26.4453 27.1887 27.0432 27.1887C27.4702 27.1887 28.2389 27.4163 29.9755 29.0961C31.9684 31.089 32.31 32 33.4203 32H36.3527C37.2068 32 37.6054 31.573 37.3777 30.7473C37.1214 29.9217 36.1535 28.726 34.9008 27.3025C34.2175 26.5054 33.1926 25.6228 32.8794 25.1957C32.4524 24.6264 32.5663 24.3986 32.8794 23.8861C32.851 23.8861 36.4381 18.8185 36.8083 17.1103Z" fill="white"/>
</svg>
