<svg width="259" height="38" viewBox="0 0 259 38" fill="none" xmlns="http://www.w3.org/2000/svg">
<path d="M23.808 20.472C23.808 21.9653 23.4133 23.2027 22.624 24.184C21.856 25.1653 20.8427 25.88 19.584 26.328C18.3467 26.776 17.024 27 15.616 27H3.52V3.128H15.616C17.6853 3.128 19.3707 3.704 20.672 4.856C21.9947 6.008 22.656 7.608 22.656 9.656C22.656 10.7013 22.464 11.64 22.08 12.472C21.7173 13.2827 21.1947 13.912 20.512 14.36C21.4293 14.7867 22.208 15.5333 22.848 16.6C23.488 17.6453 23.808 18.936 23.808 20.472ZM6.976 13.944C7.63733 13.56 8.33067 13.304 9.056 13.176C9.78133 13.048 10.6027 12.984 11.52 12.984H15.616C16.7253 12.984 17.5893 12.7067 18.208 12.152C18.848 11.5973 19.168 10.776 19.168 9.688C19.168 7.66133 17.984 6.648 15.616 6.648H6.976V13.944ZM15.968 23.512C16.672 23.512 17.3547 23.384 18.016 23.128C18.6987 22.872 19.2533 22.4773 19.68 21.944C20.128 21.4107 20.352 20.7707 20.352 20.024C20.352 18.744 19.904 17.848 19.008 17.336C18.112 16.8027 16.9813 16.536 15.616 16.536H11.52C9.68533 16.536 8.17067 16.856 6.976 17.496V23.512H15.968ZM36.8288 10.04L45.7888 27H42.1728L40.8608 24.504H38.8768C37.6181 24.504 36.3381 24.6427 35.0368 24.92C33.7354 25.176 32.6154 25.496 31.6768 25.88C30.7381 26.2427 30.1728 26.552 29.9808 26.808L29.8848 27H26.4288L34.3648 12.12L33.2768 10.04H36.8288ZM39.2928 21.496L36.0608 15.352L32.1248 22.936C32.8501 22.552 33.7674 22.2213 34.8767 21.944C36.0074 21.6453 37.3301 21.496 38.8448 21.496H39.2928ZM49.965 27V10.424H53.453V21.048L61.101 10.424H65.325L59.853 17.88L62.285 21.976C62.733 22.5947 63.1703 23 63.597 23.192C64.045 23.3627 64.5357 23.448 65.069 23.448H66.221V27H64.781C64.1197 27 63.5543 26.9467 63.085 26.84C62.637 26.712 62.157 26.4667 61.645 26.104C61.133 25.72 60.5677 25.144 59.949 24.376L57.645 20.6L53.453 27H49.965ZM85.9728 23.672V27H72.3088V10.424H85.3647V13.72H75.5728V17.752C76.2341 17.368 76.9808 17.112 77.8128 16.984C78.6448 16.856 79.6261 16.792 80.7568 16.792H83.1888V20.088H80.7568C79.2848 20.088 78.2394 20.152 77.6208 20.28C77.0021 20.3867 76.3194 20.6427 75.5728 21.048V23.672H85.9728ZM91.895 3.128H95.319V27H91.895V3.128ZM109.436 27H106.14V13.72H100.124V10.424H115.676V13.72H109.436V27Z" fill="white"/>
<path d="M138.72 10.35C139.147 10.4767 139.473 10.6833 139.7 10.97C139.927 11.2567 140.04 11.61 140.04 12.03C140.04 12.65 139.803 13.1333 139.33 13.48C138.863 13.8267 138.193 14 137.32 14H133.87V7H137.13C137.943 7 138.577 7.15667 139.03 7.47C139.483 7.78333 139.71 8.23 139.71 8.81C139.71 9.15667 139.623 9.46333 139.45 9.73C139.277 9.99 139.033 10.1967 138.72 10.35ZM135.48 9.9H136.99C137.343 9.9 137.61 9.83 137.79 9.69C137.97 9.54333 138.06 9.33 138.06 9.05C138.06 8.77667 137.967 8.56667 137.78 8.42C137.6 8.27333 137.337 8.2 136.99 8.2H135.48V9.9ZM137.26 12.8C138.02 12.8 138.4 12.5 138.4 11.9C138.4 11.32 138.02 11.03 137.26 11.03H135.48V12.8H137.26ZM141.201 8.62H142.751V11.82L145.371 8.62H146.801V14H145.251V10.8L142.641 14H141.201V8.62ZM152.821 9.9H151.001V14H149.451V9.9H147.631V8.62H152.821V9.9ZM156.822 8.54C157.322 8.54 157.776 8.65667 158.182 8.89C158.596 9.11667 158.919 9.44 159.152 9.86C159.386 10.2733 159.502 10.7567 159.502 11.31C159.502 11.8633 159.386 12.35 159.152 12.77C158.919 13.1833 158.596 13.5067 158.182 13.74C157.776 13.9667 157.322 14.08 156.822 14.08C156.136 14.08 155.596 13.8633 155.202 13.43V15.94H153.642V8.62H155.132V9.24C155.519 8.77333 156.082 8.54 156.822 8.54ZM156.552 12.8C156.952 12.8 157.279 12.6667 157.532 12.4C157.792 12.1267 157.922 11.7633 157.922 11.31C157.922 10.8567 157.792 10.4967 157.532 10.23C157.279 9.95667 156.952 9.82 156.552 9.82C156.152 9.82 155.822 9.95667 155.562 10.23C155.309 10.4967 155.182 10.8567 155.182 11.31C155.182 11.7633 155.309 12.1267 155.562 12.4C155.822 12.6667 156.152 12.8 156.552 12.8ZM160.596 8.62H162.146V11.82L164.766 8.62H166.196V14H164.646V10.8L162.036 14H160.596V8.62ZM167.695 8.62H169.245V10.72H171.585V8.62H173.145V14H171.585V11.99H169.245V14H167.695V8.62ZM177.469 10.34C178.169 10.3467 178.699 10.5033 179.059 10.81C179.419 11.1167 179.599 11.5567 179.599 12.13C179.599 12.73 179.395 13.1933 178.989 13.52C178.582 13.8467 178.005 14.01 177.259 14.01L174.639 14V8.62H176.189V10.34H177.469ZM180.179 8.62H181.729V14H180.179V8.62ZM177.119 12.9C177.419 12.9067 177.649 12.8433 177.809 12.71C177.969 12.5767 178.049 12.3767 178.049 12.11C178.049 11.85 177.969 11.66 177.809 11.54C177.655 11.42 177.425 11.3567 177.119 11.35L176.189 11.34V12.9H177.119ZM192.094 12.72V15.16H190.644V14H186.864V15.16H185.414V12.72H185.634C185.968 12.7133 186.198 12.5167 186.324 12.13C186.451 11.7433 186.531 11.1933 186.564 10.48L186.634 8.62H191.324V12.72H192.094ZM187.974 10.59C187.954 11.1367 187.911 11.5833 187.844 11.93C187.784 12.2767 187.668 12.54 187.494 12.72H189.764V9.9H188.004L187.974 10.59ZM198.236 8.62V14H196.676V9.9H194.976L194.926 10.85C194.9 11.5567 194.833 12.1433 194.726 12.61C194.62 13.0767 194.446 13.4433 194.206 13.71C193.966 13.9767 193.633 14.11 193.206 14.11C192.98 14.11 192.71 14.07 192.396 13.99L192.476 12.71C192.583 12.7233 192.66 12.73 192.706 12.73C192.94 12.73 193.113 12.6467 193.226 12.48C193.346 12.3067 193.426 12.09 193.466 11.83C193.506 11.5633 193.536 11.2133 193.556 10.78L193.636 8.62H198.236ZM204.516 8.62V14H203.126V12.46H201.976L200.956 14H199.296L200.526 12.24C200.153 12.0933 199.866 11.8833 199.666 11.61C199.473 11.33 199.376 10.9933 199.376 10.6C199.376 9.96667 199.603 9.48 200.056 9.14C200.516 8.79333 201.146 8.62 201.946 8.62H204.516ZM201.976 9.89C201.643 9.89 201.39 9.95 201.216 10.07C201.05 10.19 200.966 10.3833 200.966 10.65C200.966 10.9167 201.046 11.1133 201.206 11.24C201.373 11.36 201.623 11.42 201.956 11.42H203.126V9.89H201.976ZM212.958 11.19C213.591 11.4033 213.908 11.83 213.908 12.47C213.908 12.9567 213.724 13.3333 213.358 13.6C212.991 13.8667 212.444 14 211.718 14H208.848V8.62H211.598C212.271 8.62 212.798 8.74333 213.178 8.99C213.558 9.23 213.748 9.57 213.748 10.01C213.748 10.2767 213.678 10.5133 213.538 10.72C213.404 10.92 213.211 11.0767 212.958 11.19ZM210.278 10.83H211.458C212.004 10.83 212.278 10.6367 212.278 10.25C212.278 9.87 212.004 9.68 211.458 9.68H210.278V10.83ZM211.588 12.94C212.161 12.94 212.448 12.7433 212.448 12.35C212.448 12.1433 212.381 11.9933 212.248 11.9C212.114 11.8 211.904 11.75 211.618 11.75H210.278V12.94H211.588ZM217.898 10.34C218.598 10.3467 219.128 10.5033 219.488 10.81C219.848 11.1167 220.028 11.5567 220.028 12.13C220.028 12.73 219.825 13.1933 219.418 13.52C219.012 13.8467 218.435 14.01 217.688 14.01L215.068 14V8.62H216.618V10.34H217.898ZM220.608 8.62H222.158V14H220.608V8.62ZM217.548 12.9C217.848 12.9067 218.078 12.8433 218.238 12.71C218.398 12.5767 218.478 12.3767 218.478 12.11C218.478 11.85 218.398 11.66 218.238 11.54C218.085 11.42 217.855 11.3567 217.548 11.35L216.618 11.34V12.9H217.548ZM229.012 8.62V14H227.452V9.9H225.212V14H223.662V8.62H229.012ZM235.738 11.33C235.738 11.35 235.728 11.49 235.708 11.75H231.638C231.711 12.0833 231.884 12.3467 232.158 12.54C232.431 12.7333 232.771 12.83 233.178 12.83C233.458 12.83 233.704 12.79 233.918 12.71C234.138 12.6233 234.341 12.49 234.528 12.31L235.358 13.21C234.851 13.79 234.111 14.08 233.138 14.08C232.531 14.08 231.994 13.9633 231.528 13.73C231.061 13.49 230.701 13.16 230.448 12.74C230.194 12.32 230.068 11.8433 230.068 11.31C230.068 10.7833 230.191 10.31 230.438 9.89C230.691 9.46333 231.034 9.13333 231.468 8.9C231.908 8.66 232.398 8.54 232.938 8.54C233.464 8.54 233.941 8.65333 234.368 8.88C234.794 9.10667 235.128 9.43333 235.368 9.86C235.614 10.28 235.738 10.77 235.738 11.33ZM232.948 9.72C232.594 9.72 232.298 9.82 232.058 10.02C231.818 10.22 231.671 10.4933 231.618 10.84H234.268C234.214 10.5 234.068 10.23 233.828 10.03C233.588 9.82333 233.294 9.72 232.948 9.72ZM241.774 8.62V14H240.214V12C239.76 12.2267 239.26 12.34 238.714 12.34C237.987 12.34 237.437 12.1767 237.064 11.85C236.697 11.5167 236.514 11.0033 236.514 10.31V8.62H238.074V10.21C238.074 10.5367 238.157 10.7733 238.324 10.92C238.497 11.0667 238.744 11.14 239.064 11.14C239.47 11.14 239.854 11.0533 240.214 10.88V8.62H241.774ZM245.641 11.96H244.831V14H243.271V8.62H244.831V10.71H245.671L247.131 8.62H248.791L246.911 11.2L248.921 14H247.081L245.641 11.96ZM249.688 8.62H251.238V11.82L253.858 8.62H255.288V14H253.738V10.8L251.128 14H249.688V8.62ZM257.357 12.14C257.637 12.14 257.867 12.23 258.047 12.41C258.227 12.5833 258.317 12.8133 258.317 13.1C258.317 13.2333 258.3 13.3667 258.267 13.5C258.234 13.6333 258.16 13.8333 258.047 14.1L257.477 15.54H256.487L256.927 13.95C256.76 13.8833 256.627 13.7767 256.527 13.63C256.434 13.4767 256.387 13.3 256.387 13.1C256.387 12.8133 256.477 12.5833 256.657 12.41C256.844 12.23 257.077 12.14 257.357 12.14ZM136.12 23.96H135.31V26H133.75V20.62H135.31V22.71H136.15L137.61 20.62H139.27L137.39 23.2L139.4 26H137.56L136.12 23.96ZM142.52 26.08C141.953 26.08 141.443 25.9633 140.99 25.73C140.543 25.49 140.193 25.16 139.94 24.74C139.687 24.32 139.56 23.8433 139.56 23.31C139.56 22.7767 139.687 22.3 139.94 21.88C140.193 21.46 140.543 21.1333 140.99 20.9C141.443 20.66 141.953 20.54 142.52 20.54C143.087 20.54 143.593 20.66 144.04 20.9C144.487 21.1333 144.837 21.46 145.09 21.88C145.343 22.3 145.47 22.7767 145.47 23.31C145.47 23.8433 145.343 24.32 145.09 24.74C144.837 25.16 144.487 25.49 144.04 25.73C143.593 25.9633 143.087 26.08 142.52 26.08ZM142.52 24.8C142.92 24.8 143.247 24.6667 143.5 24.4C143.76 24.1267 143.89 23.7633 143.89 23.31C143.89 22.8567 143.76 22.4967 143.5 22.23C143.247 21.9567 142.92 21.82 142.52 21.82C142.12 21.82 141.79 21.9567 141.53 22.23C141.27 22.4967 141.14 22.8567 141.14 23.31C141.14 23.7633 141.27 24.1267 141.53 24.4C141.79 24.6667 142.12 24.8 142.52 24.8ZM150.868 21.9H149.048V26H147.498V21.9H145.678V20.62H150.868V21.9ZM153.995 26.08C153.428 26.08 152.918 25.9633 152.465 25.73C152.018 25.49 151.668 25.16 151.415 24.74C151.161 24.32 151.035 23.8433 151.035 23.31C151.035 22.7767 151.161 22.3 151.415 21.88C151.668 21.46 152.018 21.1333 152.465 20.9C152.918 20.66 153.428 20.54 153.995 20.54C154.561 20.54 155.068 20.66 155.515 20.9C155.961 21.1333 156.311 21.46 156.565 21.88C156.818 22.3 156.945 22.7767 156.945 23.31C156.945 23.8433 156.818 24.32 156.565 24.74C156.311 25.16 155.961 25.49 155.515 25.73C155.068 25.9633 154.561 26.08 153.995 26.08ZM153.995 24.8C154.395 24.8 154.721 24.6667 154.975 24.4C155.235 24.1267 155.365 23.7633 155.365 23.31C155.365 22.8567 155.235 22.4967 154.975 22.23C154.721 21.9567 154.395 21.82 153.995 21.82C153.595 21.82 153.265 21.9567 153.005 22.23C152.745 22.4967 152.615 22.8567 152.615 23.31C152.615 23.7633 152.745 24.1267 153.005 24.4C153.265 24.6667 153.595 24.8 153.995 24.8ZM161.188 20.54C161.688 20.54 162.141 20.6567 162.548 20.89C162.961 21.1167 163.284 21.44 163.518 21.86C163.751 22.2733 163.868 22.7567 163.868 23.31C163.868 23.8633 163.751 24.35 163.518 24.77C163.284 25.1833 162.961 25.5067 162.548 25.74C162.141 25.9667 161.688 26.08 161.188 26.08C160.501 26.08 159.961 25.8633 159.568 25.43V27.94H158.008V20.62H159.498V21.24C159.884 20.7733 160.448 20.54 161.188 20.54ZM160.918 24.8C161.318 24.8 161.644 24.6667 161.898 24.4C162.158 24.1267 162.288 23.7633 162.288 23.31C162.288 22.8567 162.158 22.4967 161.898 22.23C161.644 21.9567 161.318 21.82 160.918 21.82C160.518 21.82 160.188 21.9567 159.928 22.23C159.674 22.4967 159.548 22.8567 159.548 23.31C159.548 23.7633 159.674 24.1267 159.928 24.4C160.188 24.6667 160.518 24.8 160.918 24.8ZM167.791 22.34C168.491 22.3467 169.021 22.5033 169.381 22.81C169.741 23.1167 169.921 23.5567 169.921 24.13C169.921 24.73 169.718 25.1933 169.311 25.52C168.904 25.8467 168.328 26.01 167.581 26.01L164.961 26V20.62H166.511V22.34H167.791ZM170.501 20.62H172.051V26H170.501V20.62ZM167.441 24.9C167.741 24.9067 167.971 24.8433 168.131 24.71C168.291 24.5767 168.371 24.3767 168.371 24.11C168.371 23.85 168.291 23.66 168.131 23.54C167.978 23.42 167.748 23.3567 167.441 23.35L166.511 23.34V24.9H167.441ZM178.785 23.33C178.785 23.35 178.775 23.49 178.755 23.75H174.685C174.758 24.0833 174.931 24.3467 175.205 24.54C175.478 24.7333 175.818 24.83 176.225 24.83C176.505 24.83 176.751 24.79 176.965 24.71C177.185 24.6233 177.388 24.49 177.575 24.31L178.405 25.21C177.898 25.79 177.158 26.08 176.185 26.08C175.578 26.08 175.041 25.9633 174.575 25.73C174.108 25.49 173.748 25.16 173.495 24.74C173.241 24.32 173.115 23.8433 173.115 23.31C173.115 22.7833 173.238 22.31 173.485 21.89C173.738 21.4633 174.081 21.1333 174.515 20.9C174.955 20.66 175.445 20.54 175.985 20.54C176.511 20.54 176.988 20.6533 177.415 20.88C177.841 21.1067 178.175 21.4333 178.415 21.86C178.661 22.28 178.785 22.77 178.785 23.33ZM175.995 21.72C175.641 21.72 175.345 21.82 175.105 22.02C174.865 22.22 174.718 22.4933 174.665 22.84H177.315C177.261 22.5 177.115 22.23 176.875 22.03C176.635 21.8233 176.341 21.72 175.995 21.72ZM188.163 20.62V26H186.603V21.9H184.363V26H182.813V20.62H188.163ZM192.828 20.54C193.328 20.54 193.782 20.6567 194.188 20.89C194.602 21.1167 194.925 21.44 195.158 21.86C195.392 22.2733 195.508 22.7567 195.508 23.31C195.508 23.8633 195.392 24.35 195.158 24.77C194.925 25.1833 194.602 25.5067 194.188 25.74C193.782 25.9667 193.328 26.08 192.828 26.08C192.142 26.08 191.602 25.8633 191.208 25.43V27.94H189.648V20.62H191.138V21.24C191.525 20.7733 192.088 20.54 192.828 20.54ZM192.558 24.8C192.958 24.8 193.285 24.6667 193.538 24.4C193.798 24.1267 193.928 23.7633 193.928 23.31C193.928 22.8567 193.798 22.4967 193.538 22.23C193.285 21.9567 192.958 21.82 192.558 21.82C192.158 21.82 191.828 21.9567 191.568 22.23C191.315 22.4967 191.188 22.8567 191.188 23.31C191.188 23.7633 191.315 24.1267 191.568 24.4C191.828 24.6667 192.158 24.8 192.558 24.8ZM199.122 26.08C198.555 26.08 198.045 25.9633 197.592 25.73C197.145 25.49 196.795 25.16 196.542 24.74C196.288 24.32 196.162 23.8433 196.162 23.31C196.162 22.7767 196.288 22.3 196.542 21.88C196.795 21.46 197.145 21.1333 197.592 20.9C198.045 20.66 198.555 20.54 199.122 20.54C199.688 20.54 200.195 20.66 200.642 20.9C201.088 21.1333 201.438 21.46 201.692 21.88C201.945 22.3 202.072 22.7767 202.072 23.31C202.072 23.8433 201.945 24.32 201.692 24.74C201.438 25.16 201.088 25.49 200.642 25.73C200.195 25.9633 199.688 26.08 199.122 26.08ZM199.122 24.8C199.522 24.8 199.848 24.6667 200.102 24.4C200.362 24.1267 200.492 23.7633 200.492 23.31C200.492 22.8567 200.362 22.4967 200.102 22.23C199.848 21.9567 199.522 21.82 199.122 21.82C198.722 21.82 198.392 21.9567 198.132 22.23C197.872 22.4967 197.742 22.8567 197.742 23.31C197.742 23.7633 197.872 24.1267 198.132 24.4C198.392 24.6667 198.722 24.8 199.122 24.8ZM209.096 24.72V27.16H207.646V26H203.866V27.16H202.416V24.72H202.636C202.97 24.7133 203.2 24.5167 203.326 24.13C203.453 23.7433 203.533 23.1933 203.566 22.48L203.636 20.62H208.326V24.72H209.096ZM204.976 22.59C204.956 23.1367 204.913 23.5833 204.846 23.93C204.786 24.2767 204.67 24.54 204.496 24.72H206.766V21.9H205.006L204.976 22.59ZM212.168 20.54C213.001 20.54 213.641 20.74 214.088 21.14C214.535 21.5333 214.758 22.13 214.758 22.93V26H213.298V25.33C213.005 25.83 212.458 26.08 211.658 26.08C211.245 26.08 210.885 26.01 210.578 25.87C210.278 25.73 210.048 25.5367 209.888 25.29C209.728 25.0433 209.648 24.7633 209.648 24.45C209.648 23.95 209.835 23.5567 210.208 23.27C210.588 22.9833 211.171 22.84 211.958 22.84H213.198C213.198 22.5 213.095 22.24 212.888 22.06C212.681 21.8733 212.371 21.78 211.958 21.78C211.671 21.78 211.388 21.8267 211.108 21.92C210.835 22.0067 210.601 22.1267 210.408 22.28L209.848 21.19C210.141 20.9833 210.491 20.8233 210.898 20.71C211.311 20.5967 211.735 20.54 212.168 20.54ZM212.048 25.03C212.315 25.03 212.551 24.97 212.758 24.85C212.965 24.7233 213.111 24.54 213.198 24.3V23.75H212.128C211.488 23.75 211.168 23.96 211.168 24.38C211.168 24.58 211.245 24.74 211.398 24.86C211.558 24.9733 211.775 25.03 212.048 25.03ZM221.203 20.54C221.75 20.54 222.24 20.66 222.673 20.9C223.107 21.1333 223.447 21.46 223.693 21.88C223.94 22.3 224.063 22.7767 224.063 23.31C224.063 23.8433 223.94 24.32 223.693 24.74C223.447 25.16 223.107 25.49 222.673 25.73C222.24 25.9633 221.75 26.08 221.203 26.08C220.73 26.08 220.297 25.9933 219.903 25.82C219.51 25.64 219.183 25.39 218.923 25.07C218.663 24.7433 218.49 24.37 218.403 23.95H217.663V26H216.113V20.62H217.663V22.6H218.413C218.567 21.9733 218.893 21.4733 219.393 21.1C219.893 20.7267 220.497 20.54 221.203 20.54ZM221.203 24.8C221.583 24.8 221.897 24.6667 222.143 24.4C222.397 24.1267 222.523 23.7633 222.523 23.31C222.523 22.85 222.397 22.4867 222.143 22.22C221.897 21.9533 221.583 21.82 221.203 21.82C220.817 21.82 220.497 21.9533 220.243 22.22C219.997 22.4867 219.873 22.85 219.873 23.31C219.873 23.7633 219.997 24.1267 220.243 24.4C220.497 24.6667 220.817 24.8 221.203 24.8ZM229.471 21.9H227.651V26H226.101V21.9H224.281V20.62H229.471V21.9Z" fill="white"/>
</svg>
